<?xml version="1.0" standalone="no"?>
<!DOCTYPE svg PUBLIC "-//W3C//DTD SVG 20010904//EN"
 "http://www.w3.org/TR/2001/REC-SVG-20010904/DTD/svg10.dtd">
<svg version="1.0" xmlns="http://www.w3.org/2000/svg"
 width="381.000000pt" height="569.000000pt" viewBox="0 0 381.000000 569.000000"
 preserveAspectRatio="xMidYMid meet">

<g transform="translate(0.000000,569.000000) scale(0.100000,-0.100000)"
fill="#000000" stroke="none">
<path d="M0 2845 l0 -2845 1905 0 1905 0 0 2845 0 2845 -1905 0 -1905 0 0
-2845z m2043 2502 c63 -122 147 -285 187 -362 40 -77 87 -167 105 -200 126
-232 888 -1749 934 -1860 18 -41 30 -79 27 -84 -3 -5 -85 -59 -183 -121 -210
-133 -202 -128 -278 -181 -33 -23 -139 -91 -235 -152 -96 -60 -206 -131 -245
-156 -165 -111 -417 -251 -450 -251 -31 0 -463 265 -800 490 -55 37 -207 137
-338 224 l-237 157 89 172 c48 95 346 685 661 1312 613 1220 627 1248 640
1240 5 -3 60 -105 123 -228z m1237 -2714 c-13 -21 -60 -101 -105 -178 -88
-152 -381 -641 -588 -985 -72 -118 -220 -366 -330 -550 -237 -398 -303 -504
-321 -519 -11 -9 -36 26 -123 171 -343 569 -769 1268 -966 1583 -55 88 -121
194 -147 235 -104 165 -159 260 -150 260 5 0 12 -5 15 -10 4 -6 57 -44 118
-85 62 -42 213 -145 337 -230 392 -269 843 -568 856 -568 7 0 200 125 429 279
735 494 953 634 983 634 10 0 8 -10 -8 -37z"/>
<path d="M1920 4510 c0 -723 3 -922 13 -930 12 -11 960 -483 1136 -566 51 -25
96 -43 98 -40 6 5 -3 24 -246 526 -158 326 -592 1190 -686 1365 -18 33 -65
123 -105 200 -113 219 -194 365 -202 365 -5 0 -8 -414 -8 -920z"/>
<path d="M1930 2774 c0 -811 -6 -752 73 -718 57 24 296 164 449 262 32 20 86
55 120 76 103 65 374 242 503 329 66 45 134 90 152 102 18 11 32 23 33 27 0 4
-64 38 -142 76 -79 39 -323 159 -543 267 -459 227 -579 284 -617 295 l-28 9 0
-725z"/>
<path d="M1820 3449 c-19 -11 -299 -150 -622 -310 -324 -160 -588 -293 -588
-296 0 -10 23 -25 385 -267 575 -383 859 -555 880 -534 7 7 -7 1428 -14 1428
-3 -1 -22 -10 -41 -21z"/>
<path d="M3080 2493 c-41 -26 -259 -171 -485 -322 -225 -151 -459 -307 -520
-347 -60 -39 -120 -80 -133 -90 l-23 -19 3 -635 3 -635 29 50 c260 452 688
1173 975 1643 61 101 111 185 111 188 0 3 16 29 35 59 33 52 88 155 83 155 -2
0 -37 -21 -78 -47z"/>
</g>
</svg>
